HIERARCHY
ROOT Hips
{
  OFFSET 51.054 85.1297 9.10324
  CHANNELS 6 Xposition Yposition Zposition Zrotation Xrotation Yrotation
  JOINT spine
  {
    OFFSET 0 6.3926 0.367606
    CHANNELS 3 Zrotation Xrotation Yrotation
    JOINT spine1
    {
      OFFSET 0 9.17611 0
      CHANNELS 3 Zrotation Xrotation Yrotation
      JOINT spine2
      {
        OFFSET 0 8.79238 0
        CHANNELS 3 Zrotation Xrotation Yrotation
        JOINT Neck
        {
          OFFSET 0 22.5737 1.07624
          CHANNELS 3 Zrotation Xrotation Yrotation
          JOINT Head
          {
            OFFSET 0 6.82011 0
            CHANNELS 3 Zrotation Xrotation Yrotation
            End Site
            {
              OFFSET 0 16.5085 -5.44427
            }
          }
        }
        JOINT RightShoulder
        {
          OFFSET -3.70221 9.49509 -0.515508
          CHANNELS 3 Zrotation Xrotation Yrotation
          JOINT RightArm
          {
            OFFSET 0 12.4537 0
            CHANNELS 3 Zrotation Xrotation Yrotation
            JOINT RightArmRoll
            {
              OFFSET 0 6.28686 0
              CHANNELS 3 Zrotation Xrotation Yrotation
              JOINT RightForeArm
              {
                OFFSET 0 18.3114 0
                CHANNELS 3 Zrotation Xrotation Yrotation
                JOINT RightForeArmRoll
                {
                  OFFSET 0 7.05483 0
                  CHANNELS 3 Zrotation Xrotation Yrotation
                  JOINT RightHand
                  {
                    OFFSET 0 14.1575 0
                    CHANNELS 3 Zrotation Xrotation Yrotation
                    End Site
                    {
                      OFFSET 0 0 0
                    }
                  }
                }
              }
            }
          }
        }
        JOINT LeftShoulder
        {
          OFFSET 3.70221 9.49509 -0.515508
          CHANNELS 3 Zrotation Xrotation Yrotation
          JOINT LeftArm
          {
            OFFSET 0 12.4537 0
            CHANNELS 3 Zrotation Xrotation Yrotation
            JOINT LeftArmRoll
            {
              OFFSET 0 6.28686 0
              CHANNELS 3 Zrotation Xrotation Yrotation
              JOINT LeftForeArm
              {
                OFFSET 0 18.3114 0
                CHANNELS 3 Zrotation Xrotation Yrotation
                JOINT LeftForeArmRoll
                {
                  OFFSET 0 7.05482 0
                  CHANNELS 3 Zrotation Xrotation Yrotation
                  JOINT LeftHand
                  {
                    OFFSET 0 14.1575 0
                    CHANNELS 3 Zrotation Xrotation Yrotation
                    End Site
                    {
                      OFFSET 0 0 0
                    }
                  }
                }
              }
            }
          }
        }
      }
    }
  }
  JOINT RightUpLeg
  {
    OFFSET -5.66616 -1.03903 -0.87161
    CHANNELS 3 Zrotation Xrotation Yrotation
    JOINT RightUpLegRoll
    {
      OFFSET 0 16.6005 0
      CHANNELS 3 Zrotation Xrotation Yrotation
      JOINT RightLeg
      {
        OFFSET 0 -20.5572 0
        CHANNELS 3 Zrotation Xrotation Yrotation
        JOINT RightLegRoll
        {
          OFFSET 0 20.6244 0
          CHANNELS 3 Zrotation Xrotation Yrotation
          JOINT RightFoot
          {
            OFFSET 0 17.1664 0
            CHANNELS 3 Zrotation Xrotation Yrotation
            JOINT RightToeBase
            {
              OFFSET 0 14.3502 0
              CHANNELS 3 Zrotation Xrotation Yrotation
              End Site
              {
                OFFSET 0.00608252 6.94971 -0.801061
              }
            }
          }
        }
      }
    }
  }
  JOINT LeftUpLeg
  {
    OFFSET 5.66616 -1.03903 -0.87161
    CHANNELS 3 Zrotation Xrotation Yrotation
    JOINT LeftUpLegRoll
    {
      OFFSET 0 16.6006 0
      CHANNELS 3 Zrotation Xrotation Yrotation
      JOINT LeftLeg
      {
        OFFSET 0 20.5571 0
        CHANNELS 3 Zrotation Xrotation Yrotation
        JOINT LeftLegRoll
        {
          OFFSET 0 20.8151 0
          CHANNELS 3 Zrotation Xrotation Yrotation
          JOINT LeftFoot
          {
            OFFSET 0 16.9757 0
            CHANNELS 3 Zrotation Xrotation Yrotation
            JOINT LeftToeBase
            {
              OFFSET 0 14.3502 0
              CHANNELS 3 Zrotation Xrotation Yrotation
              End Site
              {
                OFFSET -0.0272592 6.94971 -0.801061
              }
            }
          }
        }
      }
    }
  }
}
MOTION
Frames: 5
Frame Time: 0.00208333
50.8184 85.4457 13.0369 0.974951 -0.622969 20.003 0.33943 -1.21854 -0.473028 0.674388 1.56283 -0.984454 0.686732 3.20773 -0.99634 17.3355 8.75959 19.1007 -29.3958 6.98933 23.7256 29.0438 -21.8556 -19.1651 73.1726 32.0394 15.2379 -1.40288e-005 1.29829e-006 -7.40048e-006 -174.961 84.9501 171.525 -4.15824e-006 -1.53947e-006 -3 8.02887 -4.95146 0.697704 -27.8632 0.390382 -5.25655 -107.559 32.063 9.75965 5.06602e-006 3.18523e-006 4.21699e-006 -9.62699 44.4664 5.50942 5.53819e-007 -4.75789e-006 3.00002 -8.02887 -4.95144 -0.697683 176.281 3.19325 0.804745 180 7.01532e-015 178.862 176.773 11.2821 179.709 -2.70735e-006 5.51936e-006 0.174388 -20.0945 69.5869 20.9663 8.15358 25.5304 -3.05468 -166.75 1.70102 -4.35273 4.5067e-006 -1.99009e-005 -1.40606 -0.368385 -7.33301 0.438917 2.92849e-006 -6.75993e-007 0.0506009 17.3066 65.6991 -17.8001 -8.13689 25.2386 3.48007 
50.864 85.4377 13.0455 0.939815 -0.646395 20.1379 0.342699 -1.22284 -0.47158 0.681644 1.5542 -0.980704 0.693949 3.1991 -0.992709 17.4634 8.66842 19.0713 -29.4834 7.08659 23.7457 28.9673 -22.0394 -19.3887 73.0171 32.2441 15.9143 -1.40288e-005 1.29829e-006 -7.40048e-006 -175.686 84.9899 172.381 -4.15824e-006 -1.53947e-006 -3 8.02887 -4.95146 0.697704 -27.886 0.370177 -5.23009 -107.592 31.949 9.55855 5.06602e-006 3.18523e-006 4.21699e-006 -9.57499 43.9083 5.40607 5.53819e-007 -4.75789e-006 3.00002 -8.02887 -4.95144 -0.697683 176.311 3.1822 0.792567 180 7.01532e-015 178.861 176.779 11.3659 179.709 -2.70735e-006 5.51936e-006 0.17742 -20.1582 69.6582 21.0347 8.15366 25.5321 -3.04942 -166.739 1.71151 -4.36304 4.5067e-006 -1.99009e-005 -1.40535 -0.377945 -7.32067 0.437609 2.92849e-006 -6.75993e-007 0.0508098 17.3077 65.7005 -17.801 -8.13689 25.2386 3.48007 
50.9104 85.4243 13.048 0.902481 -0.672049 20.2736 0.346349 -1.22667 -0.469875 0.689816 1.54652 -0.976359 0.702075 3.19143 -0.988497 17.5904 8.5755 19.0418 -29.5686 7.18085 23.7644 28.8933 -22.2233 -19.6127 72.8607 32.4497 16.5961 -1.40288e-005 1.29829e-006 -7.40048e-006 -176.424 85.0293 173.253 -4.15824e-006 -1.53947e-006 -3 8.02887 -4.95146 0.697704 -27.9089 0.349463 -5.20304 -107.627 31.8338 9.35834 5.06602e-006 3.18523e-006 4.21699e-006 -9.52178 43.3477 5.30292 5.53819e-007 -4.75789e-006 3.00002 -8.02887 -4.95144 -0.697683 176.345 3.16867 0.778389 180 7.01532e-015 178.861 176.786 11.4479 179.708 -2.70735e-006 5.51936e-006 0.180457 -20.221 69.728 21.102 8.15382 25.5349 -3.04439 -166.724 1.72333 -4.37711 4.5067e-006 -1.99009e-005 -1.40465 -0.388917 -7.31476 0.436303 2.92849e-006 -6.75993e-007 0.0508006 17.3091 65.7026 -17.8025 -8.13689 25.2386 3.48007 
50.9565 85.4176 13.0455 0.863512 -0.699316 20.4101 0.35025 -1.23013 -0.467965 0.698605 1.53958 -0.971546 0.710813 3.18448 -0.983829 17.7168 8.48074 19.0122 -29.6518 7.27279 23.7818 28.8217 -22.4069 -19.8368 72.7036 32.6566 17.2833 -1.40288e-005 1.29829e-006 -7.40048e-006 -177.178 85.0675 174.142 -4.15824e-006 -1.53947e-006 -3 8.02887 -4.95146 0.697704 -27.9321 0.327808 -5.17493 -107.665 31.7174 9.15969 5.06602e-006 3.18523e-006 4.21699e-006 -9.46798 42.7873 5.20067 5.53819e-007 -4.75789e-006 3.00002 -8.02887 -4.95144 -0.697683 176.382 3.15333 0.762755 180 7.01532e-015 178.861 176.793 11.5287 179.708 -2.70735e-006 5.51936e-006 0.183508 -20.2831 69.7968 21.1687 8.15403 25.5386 -3.03956 -166.706 1.73669 -4.394 4.5067e-006 -1.99009e-005 -1.40393 -0.400909 -7.31435 0.435016 2.92849e-006 -6.75993e-007 0.050607 17.311 65.7055 -17.8044 -8.13689 25.2386 3.48007 
51.0017 85.4128 13.0514 0.823466 -0.727579 20.5477 0.35427 -1.23333 -0.465906 0.707709 1.53315 -0.966396 0.719862 3.17806 -0.978828 17.8425 8.38402 18.9824 -29.7336 7.36312 23.7982 28.7525 -22.59 -20.0607 72.5458 32.8649 17.9762 -1.40288e-005 1.29829e-006 -7.40048e-006 -177.948 85.104 175.049 -4.15824e-006 -1.53947e-006 -3 8.02887 -4.95146 0.697704 -27.9559 0.304783 -5.14526 -107.705 31.5997 8.96331 5.06602e-006 3.18523e-006 4.21699e-006 -9.41415 42.2299 5.09991 5.53819e-007 -4.75789e-006 3.00002 -8.02887 -4.95144 -0.697683 176.421 3.13685 0.746213 180 7.01532e-015 178.86 176.799 11.6087 179.708 -2.70735e-006 5.51936e-006 0.18658 -20.3449 69.8649 21.235 8.1543 25.5432 -3.03488 -166.685 1.75179 -4.41276 4.5067e-006 -1.99009e-005 -1.4032 -0.41353 -7.31847 0.433762 2.92849e-006 -6.75993e-007 0.0502627 17.3131 65.7088 -17.8066 -8.13689 25.2386 3.48007 
